#!OML:ASF F:\VICON\USERDATA\INSTALL\rory3\rory3.ASF
:FULLY-SPECIFIED
:DEGREES
849
root 4.19315 15.9249 2.00221 23.6243 -4.0152 -3.17597
lowerback 9.40936 -1.05607 2.37286
upperback 9.01435 -1.25929 -0.752062
thorax 4.06716 -0.486103 -2.03956
lowerneck -18.7467 -0.0942178 -1.33412
upperneck 39.3102 1.57856 -3.00228
head 17.7405 -0.0316639 -0.836981
rclavicle -3.18055e-015 -7.55382e-015
rhumerus -58.0223 73.9276 -57.0775
rradius 56.3745
rwrist -16.4122
rhand -8.729 -40.4147
rfingers 7.12502
rthumb 17.2073 -69.6728
lclavicle -3.18055e-015 -7.55382e-015
lhumerus -44.3633 -78.7667 36.6088
lradius 58.4494
lwrist 62.4866
lhand -26.6433 -26.4969
lfingers 7.12502
lthumb -0.0755741 3.48288
rfemur -76.4531 -1.92456 21.1097
rtibia 37.7978
rfoot 36.4879 0.0623269
rtoes 0.25112
lfemur -57.663 0.215464 -26.5311
ltibia 59.4549
lfoot -23.8407 6.12904
ltoes 10.1612
850
root 4.19338 15.9245 2.00184 23.5941 -3.88598 -3.2102
lowerback 9.46133 -1.11436 2.45225
upperback 9.03822 -1.3305 -0.7276
thorax 4.05982 -0.517904 -2.05372
lowerneck -18.8681 -0.0839813 -1.36477
upperneck 39.3951 1.5902 -2.94931
head 17.8199 -0.0265985 -0.807234
rclavicle -9.93923e-015 1.19271e-015
rhumerus -57.791 73.9729 -56.8915
rradius 56.3692
rwrist -16.3449
rhand -9.2906 -40.5969
rfingers 7.12502
rthumb 16.6667 -69.9014
lclavicle -9.93923e-015 1.19271e-015
lhumerus -43.9022 -78.5091 36.2173
lradius 58.3571
lwrist 62.3491
lhand -26.6193 -25.9061
lfingers 7.12502
lthumb -0.0524352 4.07366
rfemur -76.4246 -2.0004 21.1735
rtibia 37.8369
rfoot 36.4187 -0.0886774
rtoes 0.467418
lfemur -57.6319 0.125716 -26.4364
ltibia 59.4473
lfoot -23.8193 6.02908
ltoes 10.3697
851
root 4.19175 15.9247 2.00223 23.5769 -3.87913 -3.17039
lowerback 9.50813 -1.12436 2.36197
upperback 9.01965 -1.34757 -0.713043
thorax 4.0149 -0.532426 -1.98578
lowerneck -18.776 -0.108661 -1.53399
upperneck 39.3135 1.53528 -2.76434
head 17.7439 -0.0461761 -0.700428
rclavicle -7.55382e-015 5.56597e-015
rhumerus -57.8265 74.0313 -56.9215
rradius 56.3621
rwrist -16.2522
rhand -9.62207 -40.687
rfingers 7.12502
rthumb 16.3476 -70.0181
lclavicle -7.55382e-015 5.56597e-015
lhumerus -43.8542 -78.3873 36.1962
lradius 58.3413
lwrist 62.2315
lhand -26.9644 -26.1009
lfingers 7.12502
lthumb -0.385657 3.87852
rfemur -76.4109 -1.99133 21.1134
rtibia 37.8642
rfoot 36.3708 -0.42349
rtoes 1.11263
lfemur -57.6029 0.118879 -26.4672
ltibia 59.4236
lfoot -23.8069 5.96857
ltoes 10.5137
852
root 4.1916 15.9259 2.00301 23.5745 -3.93638 -3.10094
lowerback 9.53787 -1.11348 2.2296
upperback 8.99345 -1.33999 -0.710706
thorax 3.97289 -0.536517 -1.9087
lowerneck -18.5983 -0.135253 -1.71561
upperneck 39.1852 1.48396 -2.59444
head 17.6202 -0.0668347 -0.596856
rclavicle 1.59028e-014 3.97569e-015
rhumerus -57.7527 74.0238 -56.7811
rradius 56.4006
rwrist -16.2852
rhand -9.09083 -40.3201
rfingers 7.12502
rthumb 16.859 -69.6083
lclavicle 1.59028e-014 3.97569e-015
lhumerus -43.8523 -78.3418 36.2364
lradius 58.3276
lwrist 62.079
lhand -26.4142 -25.6019
lfingers 7.12502
lthumb 0.145698 4.37776
rfemur -76.4186 -1.95952 21.0138
rtibia 37.878
rfoot 36.2441 -0.674424
rtoes 1.44867
lfemur -57.5756 0.136449 -26.5608
ltibia 59.3921
lfoot -23.8652 5.97463
ltoes 10.6173
853
root 4.19276 15.9268 2.00383 23.5644 -3.96109 -3.06361
lowerback 9.58708 -1.10498 2.18754
upperback 8.95457 -1.32984 -0.705794
thorax 3.90552 -0.535036 -1.8792
lowerneck -18.4882 -0.132907 -1.66953
upperneck 39.1995 1.53417 -2.75688
head 17.6038 -0.0619875 -0.669492
rclavicle -4.37326e-015 7.95139e-015
rhumerus -57.6959 73.9732 -56.6662
rradius 56.4363
rwrist -16.4041
rhand -8.05531 -39.9576
rfingers 7.12502
rthumb 17.8556 -69.1579
lclavicle -4.37326e-015 7.95139e-015
lhumerus -44.1807 -78.5382 36.5925
lradius 58.3996
lwrist 62.2264
lhand -26.0169 -25.034
lfingers 7.12502
lthumb 0.52941 4.94509
rfemur -76.4172 -1.95834 20.9616
rtibia 37.8771
rfoot 36.2033 -0.954529
rtoes 1.81934
lfemur -57.5338 0.127014 -26.6065
ltibia 59.3688
lfoot -23.9484 6.01797
ltoes 10.5054
854
root 4.19386 15.9239 2.00549 23.5699 -4.04294 -3.02683
lowerback 9.65239 -1.07789 2.12129
upperback 8.89437 -1.29629 -0.707644
thorax 3.80794 -0.523523 -1.8441
lowerneck -18.3241 -0.134086 -1.70464
upperneck 39.126 1.55869 -2.80719
head 17.5211 -0.0620395 -0.679271
rclavicle 1.23246e-014 -1.03368e-014
rhumerus -57.8637 74.0264 -56.8412
rradius 56.4502
rwrist -16.4958
rhand -7.47265 -40.297
rfingers 7.12502
rthumb 18.4162 -69.4452
lclavicle 1.23246e-014 -1.03368e-014
lhumerus -44.9502 -78.8189 37.3444
lradius 58.5477
lwrist 62.6367
lhand -26.537 -25.7404
lfingers 7.12502
lthumb 0.0271395 4.23937
rfemur -76.4495 -1.92103 20.9156
rtibia 37.8672
rfoot 36.3567 -1.08807
rtoes 2.33432
lfemur -57.5308 0.165245 -26.6735
ltibia 59.367
lfoot -23.9496 6.08525
ltoes 10.1027
855
root 4.19478 15.9204 2.0048 23.6099 -4.08213 -3.0294
lowerback 9.67786 -1.07213 2.10441
upperback 8.87228 -1.28917 -0.70349
thorax 3.77105 -0.521676 -1.83002
lowerneck -18.2296 -0.178571 -1.96596
upperneck 39.0092 1.45677 -2.50072
head 17.4233 -0.0961962 -0.51013
rclavicle -7.15625e-015 2.38542e-015
rhumerus -58.2501 74.2179 -57.2205
rradius 56.5585
rwrist -16.8248
rhand -7.8017 -40.6321
rfingers 7.12502
rthumb 18.0996 -69.81
lclavicle -7.15625e-015 2.38542e-015
lhumerus -45.234 -78.7451 37.6373
lradius 58.5675
lwrist 62.6266
lhand -26.7814 -26.7851
lfingers 7.12502
lthumb -0.208922 3.19456
rfemur -76.5075 -1.8787 20.9054
rtibia 37.8467
rfoot 36.4473 -1.13828
rtoes 2.57985
lfemur -57.6039 0.191839 -26.6833
ltibia 59.3834
lfoot -23.8765 6.05215
ltoes 9.93398
856
root 4.19716 15.9227 2.00496 23.6587 -4.03456 -3.06716
lowerback 9.57576 -1.09317 2.18981
upperback 8.89202 -1.31435 -0.692568
thorax 3.84584 -0.529009 -1.86703
lowerneck -18.2613 -0.256158 -2.25431
upperneck 39.0405 1.2943 -2.1207
head 17.4403 -0.151324 -0.31784
rclavicle 1.82882e-014 5.56597e-015
rhumerus -58.3608 74.3045 -57.2922
rradius 56.6747
rwrist -17.1581
rhand -8.31933 -40.4977
rfingers 7.12502
rthumb 17.6016 -69.721
lclavicle 1.82882e-014 5.56597e-015
lhumerus -45.3305 -78.6424 37.764
lradius 58.5567
lwrist 62.4523
lhand -27.1373 -27.5713
lfingers 7.12502
lthumb -0.552684 2.40774
rfemur -76.5326 -1.95093 21.0258
rtibia 37.8183
rfoot 36.4116 -0.994062
rtoes 2.39131
lfemur -57.6619 0.169288 -26.6465
ltibia 59.3896
lfoot -23.8584 6.04533
ltoes 9.78785
857
root 4.20129 15.9269 2.00841 23.6838 -4.01448 -3.11566
lowerback 9.3762 -1.10894 2.28019
upperback 8.964 -1.33565 -0.682718
thorax 4.03012 -0.532183 -1.91079
lowerneck -18.3171 -0.315012 -2.46306
upperneck 39.0584 1.17281 -1.84368
head 17.4595 -0.192679 -0.178506
rclavicle -8.34896e-015 -4.37326e-015
rhumerus -57.9861 74.2964 -56.929
rradius 56.7089
rwrist -17.1218
rhand -8.18931 -40.5071
rfingers 7.12502
rthumb 17.7267 -69.7191
lclavicle -8.34896e-015 -4.37326e-015
lhumerus -45.2533 -78.635 37.7072
lradius 58.5834
lwrist 62.555
lhand -27.2573 -27.4293
lfingers 7.12502
lthumb -0.668552 2.54937
rfemur -76.5155 -2.02408 21.1601
rtibia 37.7862
rfoot 36.3976 -0.865331
rtoes 2.43712
lfemur -57.6593 0.156212 -26.6122
ltibia 59.3815
lfoot -23.887 6.10243
ltoes 9.66102
858
root 4.2033 15.9265 2.00972 23.7045 -4.03441 -3.14874
lowerback 9.3695 -1.1149 2.30081
upperback 8.96264 -1.34282 -0.673376
thorax 4.03188 -0.535027 -1.91231
lowerneck -18.235 -0.325848 -2.5708
upperneck 38.9196 1.14247 -1.7294
head 17.3591 -0.202107 -0.111557
rclavicle -1.98785e-015 -1.47101e-014
rhumerus -57.9816 74.3013 -56.9659
rradius 56.7348
rwrist -16.9773
rhand -7.99715 -40.7632
rfingers 7.12502
rthumb 17.9116 -69.9584
lclavicle -1.98785e-015 -1.47101e-014
lhumerus -45.0276 -78.5802 37.4791
lradius 58.608
lwrist 62.6554
lhand -26.7069 -26.5185
lfingers 7.12502
lthumb -0.137002 3.46123
rfemur -76.5146 -1.9882 21.1681
rtibia 37.7464
rfoot 36.4417 -1.18552
rtoes 2.92792
lfemur -57.6788 0.159997 -26.5764
ltibia 59.3744
lfoot -23.8565 6.05958
ltoes 10.0515
859
root 4.20461 15.9259 2.01241 23.7272 -4.08718 -3.13624
lowerback 9.24958 -1.1089 2.26667
upperback 9.0206 -1.34037 -0.682802
thorax 4.16024 -0.533138 -1.90618
lowerneck -18.1734 -0.283277 -2.46433
upperneck 38.6913 1.23819 -1.92573
head 17.2207 -0.171452 -0.198191
rclavicle 8.74653e-015 -8.34896e-015
rhumerus -57.7534 74.1749 -56.8218
rradius 56.7305
rwrist -16.8474
rhand -8.41105 -40.9911
rfingers 7.12502
rthumb 17.5133 -70.2222
lclavicle 8.74653e-015 -8.34896e-015
lhumerus -44.7123 -78.4936 37.2036
lradius 58.5765
lwrist 62.6156
lhand -26.209 -25.7417
lfingers 7.12502
lthumb 0.343859 4.23779
rfemur -76.5164 -1.97419 21.1629
rtibia 37.7027
rfoot 36.3899 -1.36213
rtoes 3.04018
lfemur -57.6852 0.158957 -26.5913
ltibia 59.3576
lfoot -23.8237 6.05937
ltoes 10.3058
